# xmcd
# Track frame offsets:
# 182
# 12102
# 17865
# 29300
# 39057
# 47727
# 59250
# 66137
# 75370
# 84277
# 95435
# 107687
# 121610
# 132747
# 142917
#
# Disc length: 2044 seconds
# Revision: 0
# Processed by: cddbd v1.5.1PL2 Copyright (c) Steve Scherf et al.
# Submitted via: VisiTrax 2.9.5.180 - For more info visit www.synapsa.com
#
DISCID=af07fa0f
DTITLE=Waylon Jennings - Willie Nelson - Outlaw reunion
DYEAR=1900
DGENRE=
TTITLE0=Crying
TTITLE1=The ghost
TTITLE2=Sally was a good old girl
TTITLE3=Let's pretend
TTITLE4=Abilene
TTITLE5=I'm gonna lose a lot of teardrops
TTITLE6=It's so easy
TTITLE7=Wasting time
TTITLE8=Love's gonna live here
TTITLE9=Go away
TTITLE10=Don't think twice
TTITLE11=No tomorrow in sight
TTITLE12=Dream baby
TTITLE13=A new way to cry
TTITLE14=Lorena
EXTD=
EXTT0=
EXTT1=
EXTT2=
EXTT3=
EXTT4=
EXTT5=
EXTT6=
EXTT7=
EXTT8=
EXTT9=
EXTT10=
EXTT11=
EXTT12=
EXTT13=
EXTT14=
PLAYORDER=
